<svg xmlns="http://www.w3.org/2000/svg" viewBox="0 0 64 64">
  <path fill="#1a568f" d="M0 0h64v64H0z"/>
  <path fill="#fff" d="M7 7h50v50H7Z"/>
  <path fill="#f08d34" d="M32.02 28.26 42 24.77c1.16-.46 1.82 1.3.64 1.72l-9.73 3.4v12.13c0 .54-.41.97-.92.97a.95.95 0 0 1-.92-.97V29.87l-9.78-3.5c-1.15-.43-.5-2.15.64-1.72zm-15.18-6.31a.65.65 0 0 0-.43.59v18.92c0 .25.2.52.43.6l14.73 4.69c.24.07.63.07.86 0l14.73-4.7a.65.65 0 0 0 .43-.59V22.54a.66.66 0 0 0-.43-.6l-14.87-4.73a1.5 1.5 0 0 0-.58 0z"/>
</svg>